# xmcd
#
# Track frame offsets: 
#        150
#        9093
#        27348
#        45817
#        63357
#        81755
#        94623
#        111539
#        129011
#        146995
#        166278
#        182802
#        201477
#        212729
#        233368
#        248555
#        262751
#        277010
#        290404
#
# Disc length: 4259 seconds
#
# Revision: 0
# Processed by: cddbd v1.5.2PL0 Copyright (c) Steve Scherf et al.
# Submitted via: ExactAudioCopyFreeDBPlugin 1.0
#
DISCID=fe10a113
DTITLE=Royal Philharmonic Orchestra - Symphonic Queen
DYEAR=2016
DGENRE=Classical
TTITLE0=We Will Rock You
TTITLE1=I Want It All
TTITLE2=These Are The Days Of Our Lives
TTITLE3=Tie Your Mother Down
TTITLE4=Love Of My Life
TTITLE5=Crazy Little Thing Called Love
TTITLE6=Don't Stop Me Now
TTITLE7=One Vision
TTITLE8=Under Pressure
TTITLE9=The Show Must Go One
TTITLE10=I Want To Break Free
TTITLE11=We Are The Champions
TTITLE12=Flash
TTITLE13=A Kind Of Magic
TTITLE14=Fat Bottomed Girls
TTITLE15=Killer Queen
TTITLE16=Another One Bites The Dust
TTITLE17=You're My Best Friend
TTITLE18=Bohemian Rhapsody
EXTD=
EXTT0=
EXTT1=
EXTT2=
EXTT3=
EXTT4=
EXTT5=
EXTT6=
EXTT7=
EXTT8=
EXTT9=
EXTT10=
EXTT11=
EXTT12=
EXTT13=
EXTT14=
EXTT15=
EXTT16=
EXTT17=
EXTT18=
PLAYORDER=
